<svg width="400" height="400" viewBox="0 0 400 400" fill="none" xmlns="http://www.w3.org/2000/svg">
<rect width="400" height="400" fill="white"/>
<path d="M169.148 217.726C123.895 216.453 118.924 175.546 127.439 127L306 138.142C303.567 214.543 282.684 223.032 272.547 217.726C256.936 218.257 214.4 219 169.148 217.726Z" fill="#09CDC1" stroke="#09CDC1"/>
<path d="M93.4215 192C76.5289 192 61.4463 205.236 57.2231 213.659L53 247.35L345 266V213.659C314.835 205.236 316.041 192 294.926 192C270.793 192 268.983 213.659 250.281 213.659C224.942 213.659 217.099 192 199 192C180.901 192 167.628 213.659 145.909 213.659C122.699 213.659 110.314 192 93.4215 192Z" fill="white"/>
<path d="M55 228H347V283C347 299.569 333.569 313 317 313H85C68.4315 313 55 299.569 55 283V228Z" fill="#09CDC1"/>
<path d="M57 229C61.2264 220.444 76.3208 207 93.2264 207C110.132 207 122.527 229 145.755 229C167.491 229 180.774 207 198.887 207C217 207 224.849 229 250.208 229C268.925 229 270.736 207 294.887 207C316.019 207 314.811 220.444 345 229H250.208H167.491H145.755H102.283H57Z" fill="#09CDC1"/>
<path d="M57 229C61.2264 220.444 76.3208 207 93.2264 207C110.132 207 122.527 229 145.755 229C167.491 229 180.774 207 198.887 207C217 207 224.849 229 250.208 229C268.925 229 270.736 207 294.887 207C316.019 207 314.811 220.444 345 229H167.491H102.283H57Z" stroke="#09CDC1"/>
<path d="M224.6 87L221 134.85L283.367 146L287 91.1071L224.6 87Z" fill="#09CDC1" stroke="#09CDC1"/>
<ellipse cx="157" cy="151.5" rx="10" ry="10.5" fill="white"/>
</svg>
